<svg id="Layer_1" xmlns="http://www.w3.org/2000/svg" viewBox="0 0 309 96" height="48" width="154"><defs><style>.cls-1{fill:#d50313;stroke-width:0px;}</style></defs><path class="cls-1" d="m43.7,84.18c.61,0,1.21-.02,1.82-.05.61-.03,1.21-.08,1.81-.14.6-.06,1.2-.14,1.8-.23.6-.09,1.2-.2,1.79-.32.59-.12,1.19-.26,1.77-.41.59-.15,1.17-.31,1.75-.49.58-.18,1.15-.37,1.72-.58.57-.21,1.13-.43,1.69-.66.56-.23,1.11-.48,1.66-.74.55-.26,1.09-.54,1.62-.83.53-.29,1.06-.59,1.58-.9.52-.31,1.03-.64,1.53-.98.5-.34,1-.69,1.48-1.05.49-.36.96-.74,1.43-1.13.47-.39.92-.79,1.37-1.2.45-.41.88-.83,1.31-1.26.43-.43.84-.87,1.25-1.32.4-.45.8-.91,1.18-1.38.38-.47.75-.95,1.11-1.44.36-.49.7-.99,1.04-1.49.33-.51.66-1.02.96-1.54.31-.52.6-1.05.89-1.59.28-.54.55-1.08.81-1.63.26-.55.5-1.11.73-1.67.23-.56.44-1.13.64-1.7.2-.57.39-1.15.56-1.73.17-.58.33-1.17.47-1.76.14-.59.27-1.18.39-1.78.11-.6.21-1.19.3-1.79.08-.6.15-1.2.21-1.81.06-.6.1-1.21.12-1.81.03-.61.04-1.21.03-1.82,0-.61-.02-1.21-.06-1.82-.03-.61-.08-1.21-.15-1.81-.06-.6-.14-1.2-.24-1.8-.09-.6-.2-1.2-.32-1.79-.12-.59-.26-1.18-.41-1.77-.15-.59-.32-1.17-.5-1.75-.18-.58-.38-1.15-.58-1.72-.21-.57-.43-1.13-.67-1.69-.24-.56-.49-1.11-.75-1.66s-.54-1.09-.83-1.62c-.29-.53-.59-1.06-.91-1.58-.32-.52-.64-1.03-.99-1.53-.34-.5-.69-.99-1.06-1.48-.37-.48-.74-.96-1.13-1.42-.39-.47-.79-.92-1.2-1.37-.41-.45-.83-.88-1.27-1.31-.43-.43-.88-.84-1.33-1.24-.45-.4-.92-.8-1.39-1.18-.47-.38-.95-.75-1.44-1.11-.49-.36-.99-.7-1.5-1.03-.51-.33-1.02-.65-1.55-.96-.52-.31-1.05-.6-1.59-.88-.54-.28-1.08-.55-1.63-.8-.55-.25-1.11-.49-1.67-.72-.56-.23-1.13-.44-1.7-.64-.57-.2-1.15-.38-1.73-.55-.58-.17-1.17-.33-1.76-.47-.59-.14-1.18-.27-1.78-.38-.6-.11-1.19-.21-1.8-.29s-1.2-.15-1.81-.2c-.6-.05-1.21-.09-1.82-.12-.61-.02-1.21-.03-1.82-.03-.61,0-1.21.03-1.82.06s-1.21.09-1.81.15c-.6.07-1.2.15-1.8.24-.6.1-1.2.21-1.79.33-.59.12-1.18.26-1.77.42-.59.15-1.17.32-1.75.5s-1.15.38-1.72.59c-.57.21-1.13.44-1.69.67-.56.24-1.11.49-1.65.76s-1.08.54-1.62.84c-.53.29-1.06.6-1.57.91-.52.32-1.02.65-1.53.99-.5.34-.99.7-1.47,1.06-.48.37-.96.75-1.42,1.14-.46.39-.92.79-1.36,1.2-.44.41-.88.84-1.3,1.27-.42.43-.84.88-1.24,1.33-.4.45-.79.92-1.17,1.39-.38.47-.75.96-1.1,1.45-.36.49-.7.99-1.03,1.5-.33.51-.65,1.02-.95,1.55-.31.52-.6,1.06-.88,1.59-.28.54-.54,1.08-.8,1.63-.25.55-.49,1.11-.72,1.67-.22.56-.44,1.13-.63,1.71-.2.57-.38,1.15-.55,1.73-.17.58-.32,1.17-.46,1.76-.14.59-.26,1.18-.37,1.78-.11.6-.21,1.2-.29,1.8-.08.6-.15,1.2-.2,1.81-.05.6-.09,1.21-.11,1.82-.02.61-.03,1.21-.02,1.82,0,.6.03,1.2.07,1.8s.09,1.2.16,1.8c.07.6.15,1.19.24,1.79.1.59.21,1.19.33,1.77.12.59.26,1.17.42,1.76.15.58.32,1.16.5,1.73.18.57.38,1.14.59,1.71.21.56.43,1.12.67,1.68.24.55.49,1.1.75,1.64.26.54.54,1.08.83,1.6.29.53.59,1.05.9,1.56.31.51.64,1.02.98,1.52.34.5.69.99,1.05,1.47.36.48.74.95,1.12,1.41.39.46.78.91,1.19,1.36.41.44.83.87,1.25,1.3.43.42.87.83,1.32,1.23.45.4.91.79,1.38,1.17.47.38.94.75,1.43,1.1.49.36.98.7,1.48,1.03.5.33,1.01.65,1.53.96.52.31,1.04.6,1.58.88s1.07.55,1.62.8c.55.25,1.1.5,1.65.72.56.23,1.12.44,1.69.64.57.2,1.14.39,1.72.56.58.17,1.16.33,1.74.47.58.14,1.17.27,1.76.39.59.12,1.18.22,1.78.3.6.09,1.19.16,1.79.22.6.06,1.2.1,1.8.13s1.2.04,1.8.04v-.07Zm0,4.12c-.67,0-1.35-.02-2.02-.05-.67-.03-1.34-.08-2.02-.15-.67-.07-1.34-.15-2.01-.25-.67-.1-1.33-.21-1.99-.34-.66-.13-1.32-.28-1.97-.44-.65-.16-1.3-.34-1.95-.54-.64-.2-1.28-.41-1.92-.63-.63-.23-1.26-.47-1.89-.73-.62-.26-1.24-.53-1.85-.82-.61-.29-1.21-.59-1.81-.91-.59-.32-1.18-.65-1.76-.99-.58-.35-1.15-.71-1.71-1.08-.56-.37-1.11-.76-1.65-1.16-.54-.4-1.07-.81-1.59-1.24s-1.03-.87-1.53-1.32c-.5-.45-.99-.92-1.46-1.39-.48-.48-.94-.96-1.39-1.46-.45-.5-.89-1.01-1.32-1.53-.43-.52-.84-1.05-1.24-1.59-.4-.54-.79-1.09-1.16-1.65-.37-.56-.74-1.13-1.08-1.71-.35-.58-.68-1.16-1-1.76s-.62-1.2-.91-1.8c-.29-.61-.56-1.22-.82-1.85-.26-.62-.5-1.25-.73-1.88-.23-.63-.44-1.27-.64-1.92-.2-.64-.38-1.29-.54-1.95-.16-.65-.31-1.31-.44-1.97-.13-.66-.25-1.32-.35-1.99-.1-.67-.18-1.33-.25-2.01-.07-.67-.12-1.34-.15-2.02-.03-.67-.05-1.35-.05-2.02,0-.67.02-1.35.05-2.02.03-.67.08-1.34.15-2.02.07-.67.15-1.34.25-2.01.1-.67.21-1.33.34-1.99.13-.66.28-1.32.44-1.97.16-.65.34-1.3.54-1.95.2-.64.41-1.28.63-1.92s.47-1.26.73-1.89c.26-.62.53-1.24.82-1.85.29-.61.59-1.21.91-1.81.32-.59.65-1.18,1-1.76.35-.58.71-1.15,1.08-1.71.37-.56.76-1.11,1.16-1.65.4-.54.82-1.07,1.24-1.59.43-.52.87-1.03,1.32-1.53.45-.5.92-.99,1.39-1.46.48-.48.96-.94,1.46-1.39.5-.45,1.01-.89,1.53-1.32.52-.43,1.05-.84,1.59-1.24.54-.4,1.09-.79,1.65-1.16.56-.37,1.13-.74,1.71-1.08.58-.35,1.16-.68,1.76-1,.59-.32,1.2-.62,1.8-.91.61-.29,1.22-.56,1.85-.82.62-.26,1.25-.5,1.89-.73.63-.23,1.27-.44,1.92-.63s1.29-.38,1.95-.54c.65-.16,1.31-.31,1.97-.44.66-.13,1.32-.25,1.99-.35.67-.1,1.33-.18,2.01-.25s1.34-.12,2.02-.15c.67-.03,1.35-.05,2.02-.05.67,0,1.35.02,2.02.05.67.03,1.34.08,2.02.15.67.07,1.34.15,2.01.25.67.1,1.33.21,1.99.34.66.13,1.32.28,1.97.44s1.3.34,1.95.54c.64.2,1.28.41,1.92.63.63.23,1.26.47,1.89.73.62.26,1.24.53,1.85.82.61.29,1.21.59,1.81.91.59.32,1.18.65,1.76,1,.58.35,1.15.71,1.71,1.08.56.37,1.11.76,1.65,1.16.54.4,1.07.82,1.59,1.24.52.43,1.03.87,1.53,1.32.5.45.99.92,1.46,1.39.48.48.94.96,1.39,1.46.45.5.89,1.01,1.32,1.53.43.52.84,1.05,1.24,1.59.4.54.79,1.09,1.16,1.65.37.56.73,1.13,1.08,1.71.35.58.68,1.16,1,1.76.32.59.62,1.2.91,1.8.29.61.56,1.22.82,1.85.26.62.5,1.25.73,1.89.23.63.44,1.27.63,1.92.2.64.38,1.29.54,1.95.16.65.31,1.31.44,1.97.13.66.25,1.32.35,1.99.1.67.18,1.33.25,2.01.07.67.12,1.34.15,2.02.03.67.05,1.35.05,2.02,0,.67-.02,1.35-.05,2.02-.03.67-.08,1.34-.15,2.01-.07.67-.15,1.34-.25,2-.1.67-.21,1.33-.34,1.99-.13.66-.28,1.32-.44,1.97-.16.65-.34,1.3-.54,1.95-.2.64-.41,1.28-.63,1.92-.23.63-.47,1.26-.73,1.88s-.53,1.24-.82,1.85c-.29.61-.59,1.21-.91,1.8-.32.59-.65,1.18-.99,1.76-.35.58-.71,1.15-1.08,1.71-.37.56-.76,1.11-1.16,1.65-.4.54-.81,1.07-1.24,1.59-.43.52-.87,1.03-1.32,1.53-.45.5-.92.99-1.39,1.46-.48.48-.96.94-1.46,1.39-.5.45-1.01.89-1.53,1.32-.52.43-1.05.84-1.59,1.24-.54.4-1.09.79-1.65,1.16-.56.37-1.13.73-1.71,1.08-.58.35-1.16.68-1.76,1-.59.32-1.2.62-1.8.91-.61.29-1.22.56-1.85.82-.62.26-1.25.5-1.88.73-.63.23-1.27.44-1.92.63-.64.2-1.29.38-1.95.54-.65.16-1.31.31-1.97.44-.66.13-1.32.25-1.99.35-.67.1-1.33.18-2,.25-.67.07-1.34.12-2.01.15-.67.03-1.35.05-2.02.05h0Z" /><path class="cls-1" d="m188.54,45.47c-.75.05-1.5.14-2.25.27-.33.08-.65.18-.96.29-.32.11-.63.24-.93.38s-.6.29-.89.46c-.29.17-.57.35-.85.54-.27.19-.54.4-.79.62-.25.22-.5.45-.73.69-.23.24-.46.49-.67.75-.21.26-.41.53-.59.81-.19.28-.36.57-.52.86-.16.3-.3.6-.43.91-.13.31-.25.62-.35.94-.1.32-.19.64-.26.97-.07.33-.13.66-.17.99-.04.33-.07.67-.08,1,0,.34,0,.67.02,1,.02.33.06.67.11,1,.02.19.04.37.06.55s.06.37.09.55c.04.18.08.36.12.54.05.18.1.36.15.54.05.18.11.35.18.53s.13.35.21.52c.07.17.15.34.23.51.08.17.17.33.26.49s.19.32.29.48.2.31.31.46c.11.15.22.3.34.45.12.15.24.29.36.43.12.14.25.27.38.41.13.13.26.26.4.39.14.12.28.25.42.36.14.12.29.23.44.34.15.11.3.22.46.32.16.1.31.2.48.29s.32.18.49.27.33.16.5.24.34.15.52.21c.17.07.35.13.53.18.18.06.36.11.54.16.18.05.36.09.54.13.18.04.37.07.55.1.18.03.37.05.55.07.19.02.37.03.56.04.19,0,.37.01.56,0,.19,0,.37,0,.56-.02.19-.01.37-.03.56-.05.18-.02.37-.05.55-.08.18-.03.37-.07.55-.11.33-.1.65-.21.97-.33.32-.13.63-.27.93-.42.3-.15.6-.32.89-.5.29-.18.57-.38.84-.58.27-.21.53-.43.78-.66.25-.23.49-.47.72-.73.23-.25.44-.52.65-.79.2-.27.39-.56.57-.85.18-.29.34-.59.49-.89.15-.31.29-.62.41-.94.12-.32.23-.64.32-.97.09-.33.17-.66.23-1,.06-.34.11-.67.14-1.01.03-.34.05-.68.05-1.02,0-.34-.02-.68-.05-1.02s-.08-.68-.14-1.01c-.04-.31-.1-.61-.17-.91-.07-.3-.15-.6-.25-.89-.1-.29-.2-.58-.32-.87-.12-.28-.25-.56-.4-.84-.15-.27-.3-.54-.47-.8-.17-.26-.35-.51-.54-.75-.19-.24-.39-.48-.6-.7-.21-.22-.43-.44-.66-.65-.23-.21-.47-.4-.72-.58-.25-.18-.5-.36-.77-.52-.26-.16-.53-.31-.81-.45s-.56-.26-.85-.38c-.29-.11-.58-.21-.88-.3-.3-.09-.6-.16-.9-.22-.3-.06-.61-.11-.92-.14-.31-.03-.62-.05-.92-.06h0Zm-10.38,26.91v13.1c0,.14,0,.29,0,.43,0,.14-.02.29-.04.43-.02.14-.05.28-.08.42-.04.14-.08.28-.13.41s-.1.27-.17.4c-.06.13-.13.26-.21.38-.08.12-.16.24-.24.36-.09.12-.18.23-.28.33-.1.11-.2.21-.31.3-.11.1-.22.19-.34.27-.12.08-.24.16-.36.23-.13.07-.25.14-.39.2-.13.06-.27.11-.4.16-.14.05-.28.08-.42.12-.14.03-.28.06-.43.07-.14.02-.29.03-.43.03-.14,0-.28-.01-.42-.03-.14-.02-.28-.04-.42-.07-.14-.03-.27-.07-.41-.11-.13-.04-.27-.1-.39-.15-.13-.06-.25-.12-.38-.19-.12-.07-.24-.15-.35-.23-.11-.08-.22-.17-.33-.27-.11-.09-.21-.19-.3-.3-.09-.11-.18-.21-.27-.33-.08-.11-.16-.23-.23-.36-.07-.12-.14-.25-.19-.38s-.11-.26-.15-.4c-.04-.13-.08-.27-.11-.41-.03-.14-.05-.28-.07-.42-.02-.14-.03-.28-.03-.42,0-.14,0-.28.02-.42,0-14.61,0-29.21,0-43.82-.03-.24-.03-.48-.02-.72.02-.24.05-.48.11-.71.06-.23.14-.46.24-.68.1-.22.22-.43.35-.62.14-.2.29-.38.46-.55.17-.17.35-.32.55-.46.2-.14.41-.25.62-.35.22-.1.44-.18.68-.23.25-.06.5-.1.76-.12.26-.02.51-.01.77.02.25.03.5.08.75.15s.48.17.71.28.45.25.65.4c.21.15.4.32.57.51.18.19.33.39.47.6.14.21.26.44.36.68l.27.41c.54-.35,1.1-.66,1.67-.95.57-.29,1.16-.55,1.76-.78.6-.23,1.21-.43,1.83-.59.62-.17,1.25-.3,1.88-.41.63-.1,1.27-.17,1.91-.21.64-.04,1.28-.05,1.92-.02.64.03,1.28.09,1.91.18.63.09,1.26.21,1.89.37.99.27,1.94.61,2.87,1.04.93.43,1.81.93,2.65,1.51.84.58,1.63,1.23,2.36,1.94s1.39,1.48,1.99,2.31c.32.41.62.84.9,1.27.28.44.55.88.79,1.34.25.46.48.92.68,1.4.21.48.4.96.57,1.45.17.49.32.99.45,1.49.13.5.24,1.01.33,1.52.09.51.16,1.03.21,1.54s.08,1.03.09,1.55c0,.52,0,1.04-.04,1.56-.03.52-.09,1.03-.16,1.55-.08.51-.17,1.02-.29,1.53-.12.51-.25,1.01-.41,1.5-.16.5-.33.98-.53,1.46-.2.48-.41.95-.64,1.42-.23.46-.48.92-.75,1.36-.27.44-.56.88-.86,1.3-.34.47-.7.93-1.09,1.37-.38.44-.79.86-1.21,1.26-.43.4-.87.78-1.33,1.13-.46.36-.94.69-1.44,1-.49.31-1,.59-1.53.85-.52.26-1.06.49-1.6.7-.55.21-1.1.39-1.66.54s-1.13.28-1.71.37c-1.16.2-2.32.3-3.5.28-1.18-.02-2.34-.15-3.49-.38-1.15-.24-2.27-.58-3.35-1.04s-2.12-1-3.1-1.65h0Z" /><path class="cls-1" d="m158.06,52.68c-.58-4.12-6.6-8.33-11.57-8.2-.29,0-.58.02-.87.05-.29.03-.58.07-.86.12-.29.05-.57.12-.85.19s-.56.17-.83.27c-.27.1-.54.21-.81.33-.26.12-.52.26-.78.4-.25.14-.5.3-.74.46-.24.16-.47.34-.7.52-.23.18-.44.38-.65.58-.21.2-.41.41-.6.63-.19.22-.37.45-.55.68-.17.23-.34.48-.49.72-.15.25-.29.5-.43.76-.13.26-.25.53-.36.8s-.21.54-.29.82c-.09.28-.16.56-.22.84h21.6Zm-21.33,6.46c.1.63.25,1.25.47,1.85.22.6.49,1.17.83,1.72.33.55.72,1.05,1.15,1.52.43.47.91.89,1.43,1.27.26.19.53.37.81.53.28.17.56.32.85.47.29.14.58.28.88.4.3.12.6.23.91.33.31.1.62.19.94.26.32.07.63.14.95.19.32.05.64.09.96.11.32.03.65.04.97.04s.65-.01.97-.04c.32-.03.64-.06.96-.11.32-.05.64-.11.95-.19.32-.07.63-.16.94-.26.31-.1.61-.21.91-.33.3-.12.59-.26.88-.4.29-.14.57-.3.85-.47.28-.17.55-.34.81-.53.16-.12.32-.24.5-.34.17-.1.35-.19.54-.26.19-.08.38-.14.57-.19.19-.05.39-.08.59-.1.2-.02.4-.03.6-.02.2,0,.4.03.6.06.2.03.39.08.58.15.19.06.38.14.56.22.14.06.27.13.4.21.13.08.25.17.36.27.11.1.22.21.31.33.1.12.18.24.26.37.08.13.14.27.2.41.05.14.1.29.13.43s.05.3.06.45c0,.15,0,.3-.02.45-.03.48-.14.93-.32,1.37-.19.44-.44.83-.76,1.18-.32.3-.65.59-.99.86-.34.28-.69.54-1.05.79-.36.25-.72.49-1.1.72-.37.23-.76.44-1.14.64-.39.2-.78.39-1.19.56-.4.17-.81.33-1.22.47-.41.14-.83.27-1.25.39-.42.11-.85.21-1.28.3-.43.09-.86.16-1.29.21-.43.06-.87.1-1.3.12-.44.02-.87.03-1.31.03-.44,0-.87-.03-1.31-.06-.44-.04-.87-.09-1.3-.15-.43-.07-.86-.15-1.29-.24-.43-.1-.85-.21-1.27-.33s-.83-.26-1.24-.42c-.41-.13-.81-.27-1.21-.42-.4-.16-.79-.32-1.18-.51-.39-.18-.77-.38-1.14-.59-.37-.21-.74-.43-1.09-.67-.36-.24-.7-.49-1.04-.75-.34-.26-.67-.54-.99-.82-.32-.29-.63-.58-.92-.89-.3-.31-.58-.63-.86-.95-.27-.33-.54-.67-.79-1.01s-.49-.7-.71-1.07c-.22-.36-.44-.74-.63-1.12-.2-.38-.38-.77-.55-1.16-.17-.39-.33-.79-.47-1.2-.14-.4-.27-.81-.38-1.23-.11-.41-.21-.83-.29-1.25-.08-.42-.15-.84-.2-1.27-.05-.29-.1-.58-.13-.87-.04-.29-.07-.59-.09-.88s-.04-.59-.05-.88c-.01-.29-.01-.59,0-.88,0-.29.01-.59.03-.88.02-.29.04-.59.07-.88.03-.29.07-.59.11-.88.04-.29.1-.58.15-.87.06-.29.12-.58.2-.86.07-.29.15-.57.24-.85.09-.28.18-.56.27-.84.1-.28.2-.55.31-.83.11-.27.23-.54.35-.81.12-.27.25-.53.39-.79.14-.26.28-.52.43-.77.15-.25.3-.51.46-.75.16-.25.33-.49.5-.73.17-.24.35-.48.53-.71.18-.23.37-.46.56-.68.19-.22.39-.44.59-.66s.41-.42.62-.63c.21-.2.43-.4.65-.6.22-.19.45-.38.68-.57s.47-.36.7-.53c.24-.17.48-.34.73-.5.25-.16.5-.32.75-.47s.51-.29.77-.43c.26-.14.52-.27.79-.39.27-.13.54-.24.81-.36.27-.11.55-.22.83-.32s.56-.19.84-.28c.28-.09.57-.17.85-.24.33-.09.66-.16.99-.23.33-.07.66-.12,1-.17s.67-.09,1.01-.12c.34-.03.67-.05,1.01-.06s.68-.01,1.01,0c.34,0,.68.02,1.01.05.34.03.67.06,1.01.11.34.04.67.1,1,.16.33.06.66.14.99.22s.65.17.98.27c.32.1.64.21.96.33.32.12.63.24.94.38.31.14.62.28.92.43.3.15.6.31.89.48.29.17.58.35.87.53.28.18.56.38.83.58.27.2.54.41.8.62.26.21.52.44.77.67.25.23.49.46.73.71.24.24.47.49.69.75s.44.52.65.78c.21.27.41.54.6.82.19.28.38.56.55.85.18.29.35.58.51.88.16.3.31.6.46.91.14.31.28.62.41.93.13.31.24.63.35.95.11.32.21.64.3.97.09.33.17.65.25.98.07.33.14.66.19,1,.05.33.1.67.14,1.01s.06.67.08,1.01c0,3.06-1.22,4.49-4.35,4.49h-24.08v.03Z" /><path class="cls-1" d="m277.71,52.64h21.74c-.11-.3-.23-.59-.36-.87-.13-.29-.27-.57-.42-.84-.15-.28-.31-.54-.48-.81-.17-.26-.35-.52-.54-.77-.19-.25-.39-.49-.6-.73-.21-.23-.43-.46-.65-.68-.23-.22-.46-.43-.7-.63-.24-.2-.49-.39-.75-.57-.26-.18-.52-.35-.79-.51s-.54-.31-.83-.45c-.28-.14-.57-.27-.86-.39-.29-.12-.59-.23-.88-.32-.3-.1-.6-.18-.91-.25-.31-.07-.61-.13-.92-.18-.31-.05-.62-.09-.93-.11-.31-.03-.63-.04-.94-.04-.29,0-.58.02-.87.05-.29.03-.58.07-.86.12-.29.05-.57.12-.85.19-.28.08-.56.16-.83.26-.27.1-.54.21-.81.33s-.52.25-.78.4c-.25.14-.5.3-.74.46-.24.16-.48.34-.7.52-.23.18-.45.37-.66.57-.21.2-.41.41-.61.63-.19.22-.38.44-.55.68-.18.23-.34.47-.5.72-.16.25-.3.5-.43.76s-.26.52-.37.79c-.11.27-.21.54-.3.82s-.17.56-.23.84l-.07.03Zm.31,6.5c.11.69.29,1.37.55,2.02.25.66.58,1.28.96,1.86.39.59.83,1.13,1.33,1.62.5.49,1.05.92,1.65,1.3.53.33,1.08.62,1.65.86.57.25,1.15.45,1.75.62.6.16,1.21.28,1.82.35.62.07,1.24.1,1.86.09.62-.02,1.24-.08,1.85-.18.61-.11,1.21-.26,1.8-.45.59-.19,1.16-.43,1.72-.71.56-.28,1.09-.6,1.6-.95.15-.13.32-.25.49-.36s.35-.2.54-.28c.19-.08.38-.14.57-.19.2-.05.4-.08.6-.1.2-.02.4-.02.61,0,.2.01.4.04.6.09.2.04.39.1.58.18.19.07.37.16.54.26.15.08.3.16.43.26.14.1.27.21.39.33.12.12.23.25.33.39.1.14.18.28.26.44.07.15.13.31.18.47s.08.33.1.5.03.34.02.51c0,.17-.03.34-.07.5-.07.41-.21.8-.4,1.17-.2.37-.45.69-.75.98-.32.29-.64.57-.97.84-.33.27-.68.52-1.03.77-.35.24-.71.48-1.08.7-.37.22-.74.43-1.12.62-.38.19-.77.38-1.16.54-.39.17-.79.32-1.2.46-.4.14-.81.27-1.22.38-.41.11-.83.21-1.25.3-.42.09-.84.16-1.27.21-.42.06-.85.1-1.28.13-.43.03-.85.04-1.28.04-.43,0-.86-.02-1.28-.05-.43-.03-.85-.07-1.28-.13-.42-.06-.85-.13-1.26-.22-.42-.09-.83-.19-1.25-.3-.41-.11-.82-.24-1.22-.39-.4-.12-.8-.25-1.2-.4-.39-.15-.78-.31-1.16-.48-.38-.17-.76-.36-1.13-.56-.37-.2-.73-.42-1.08-.64-.35-.23-.7-.47-1.04-.72-.34-.25-.67-.51-.98-.79-.32-.27-.63-.56-.93-.86-.3-.3-.59-.6-.86-.92-.28-.32-.54-.64-.8-.98-.25-.34-.5-.68-.72-1.03s-.45-.71-.65-1.08-.4-.74-.57-1.12-.34-.77-.49-1.16c-.15-.39-.29-.79-.41-1.19-.12-.4-.23-.81-.32-1.22-.09-.41-.17-.82-.24-1.24-.06-.3-.12-.59-.17-.89-.05-.3-.09-.6-.12-.9-.03-.3-.06-.6-.08-.9-.02-.3-.03-.6-.04-.91,0-.3,0-.6,0-.91,0-.3.03-.6.05-.9.02-.3.05-.6.09-.9.04-.3.08-.6.13-.9.05-.3.11-.59.18-.89.07-.29.14-.59.22-.88.08-.29.17-.58.26-.87.09-.29.19-.57.3-.85.11-.28.22-.56.34-.84.12-.28.25-.55.38-.82.13-.27.27-.54.42-.8.15-.26.3-.52.46-.78.16-.26.32-.51.49-.76.17-.25.35-.49.53-.73.18-.24.37-.48.56-.71.19-.23.39-.46.6-.68.2-.22.41-.44.63-.65.21-.21.43-.42.66-.62s.45-.4.69-.59c.23-.19.47-.38.72-.56.24-.18.49-.35.74-.52.25-.17.51-.33.76-.49.26-.16.52-.31.79-.45.27-.14.54-.28.81-.41.27-.13.55-.25.83-.37s.56-.23.84-.33c.28-.1.57-.2.86-.29.29-.09.58-.17.87-.25.33-.08.66-.15.99-.21.33-.06.67-.11,1-.15.34-.04.67-.08,1.01-.1.34-.02.67-.04,1.01-.04s.68,0,1.01.01c.34.01.68.04,1.01.07.34.03.67.07,1.01.12.33.05.67.11,1,.18.33.07.66.15.99.23.33.09.65.18.97.28.32.1.64.22.96.34.32.12.63.25.94.39.31.14.61.29.91.44.3.16.6.32.89.49.29.17.58.35.86.54.28.19.56.38.83.58s.54.41.8.63.51.44.76.67c.25.23.49.47.72.71.23.24.46.49.68.75.22.26.43.52.64.79.21.27.41.54.6.82.19.28.38.56.55.85.18.29.34.58.5.88.16.3.31.6.46.91.14.31.28.62.4.93.13.31.24.63.35.95.11.32.21.64.3.97.09.33.17.65.25.98.07.33.14.66.19,1,.06.33.1.67.14,1,.04.34.06.67.08,1.01.02.14.04.28.04.42,0,.14,0,.28,0,.43,0,.14-.03.28-.05.42-.03.14-.06.28-.1.41-.04.14-.09.27-.15.4-.06.13-.12.26-.19.38-.07.12-.15.24-.23.36-.09.11-.18.22-.27.33-.1.1-.2.2-.31.29s-.22.18-.34.25-.24.15-.37.21c-.13.06-.26.12-.39.17-.13.05-.27.09-.41.12-.14.03-.28.06-.42.08-.14.02-.28.03-.42.03-.14,0-.28,0-.43-.02h-24.39v-.03Z" /><path class="cls-1" d="m243.99,51.18v8.64c0,.5-.03,1.01-.08,1.51-.05.5-.12,1-.22,1.49-.1.49-.22.98-.36,1.47-.14.48-.31.96-.5,1.42s-.4.92-.63,1.37c-.23.45-.48.88-.76,1.31-.27.42-.57.83-.88,1.23-.31.4-.64.78-.99,1.14-.35.36-.71.71-1.09,1.04-.38.33-.78.64-1.19.93-.41.29-.83.57-1.27.82-.44.25-.88.48-1.34.69-.46.21-.92.4-1.4.57-.48.17-.96.31-1.45.43-.49.12-.98.22-1.48.29-.5.07-1,.12-1.5.15-.5.03-1.01.03-1.51,0-.5-.02-1-.07-1.5-.13-.5-.07-.99-.16-1.48-.27s-.97-.25-1.45-.41-.95-.34-1.41-.55c-.46-.2-.91-.43-1.35-.68s-.86-.51-1.28-.8c-.41-.29-.81-.59-1.2-.92-.38-.33-.75-.67-1.11-1.03-.35-.36-.69-.74-1-1.13-.32-.39-.61-.8-.89-1.22-.28-.42-.54-.85-.77-1.3-.24-.44-.45-.9-.65-1.36-.19-.46-.37-.94-.52-1.42-.15-.48-.28-.97-.38-1.46-.1-.49-.18-.99-.24-1.49-.14-2.74-.14-5.49,0-8.23,0-3.9,0-7.8,0-11.7-.01-.14-.02-.28-.02-.41,0-.14.01-.28.03-.41.02-.14.04-.27.07-.41.03-.13.07-.27.11-.4.04-.13.09-.26.15-.38.06-.13.12-.25.19-.37.07-.12.15-.23.23-.35.08-.11.17-.22.26-.32s.19-.2.29-.29.21-.18.32-.26.23-.16.35-.22c.12-.07.24-.13.37-.19.13-.06.26-.1.39-.15.13-.04.26-.08.4-.11.14-.03.27-.05.41-.06s.27-.02.41-.02.28,0,.41.02c.14.01.27.04.41.06.14.03.27.06.4.11.13.04.26.09.39.15s.25.12.37.19c.12.07.24.14.35.22.11.08.22.17.32.26.1.09.2.19.29.29.09.1.18.21.26.32.08.11.16.23.23.35.07.12.13.24.19.37.06.13.11.25.15.38.04.13.08.26.11.4.03.13.05.27.07.41.02.14.02.27.03.41,0,.14,0,.28-.02.41,0,5.95,0,11.91,0,17.83,0,.24,0,.48,0,.73.01.24.04.48.07.72s.08.48.14.71c.06.24.12.47.2.7s.17.45.27.68c.1.22.21.44.33.65.12.21.25.42.39.62.14.2.28.39.44.58.16.19.32.36.49.53.17.17.35.33.54.49.19.15.38.3.58.44.2.14.41.26.62.38.21.12.43.22.65.32s.45.18.68.26c.23.08.46.14.7.2.24.06.47.1.71.13.26.04.51.06.77.07.26.01.52,0,.77,0,.26-.01.51-.04.77-.08.26-.04.51-.09.76-.15.25-.06.5-.14.74-.22.24-.09.48-.18.72-.29.23-.11.46-.23.68-.36.22-.13.44-.27.65-.42.21-.15.41-.31.6-.48.19-.17.38-.35.56-.54.18-.19.34-.38.5-.59.16-.2.31-.42.44-.63.14-.22.26-.44.38-.67.12-.23.22-.47.31-.71.09-.24.18-.48.25-.73.07-.25.13-.5.18-.75.06-.61.06-1.22,0-1.84,0-5.89,0-11.8,0-17.69,0-.22,0-.44.03-.67.03-.22.07-.44.14-.65.06-.21.15-.42.25-.62.1-.2.22-.39.35-.57.13-.18.28-.35.44-.5s.33-.3.52-.42c.18-.13.38-.23.58-.33.2-.09.41-.17.63-.23.22-.05.45-.09.67-.11.23-.02.45-.01.68,0,.23.02.45.06.67.12s.43.14.64.23c.21.1.4.21.59.34.19.13.36.27.53.43.16.16.31.33.45.51.14.18.25.38.36.58.28.65.42,1.33.41,2.04.14,3.16.14,6.36.14,9.56Z" /><path class="cls-1" d="m263.15,45.57v20.27c0,.85,0,1.29,1.12,1.53.25.06.49.15.73.26.23.11.46.24.67.39s.41.32.58.5c.18.19.34.39.48.6.14.22.26.44.36.68.1.24.18.48.23.74.05.25.08.51.09.77,0,.26-.01.51-.05.77-.04.25-.11.5-.19.75-.09.24-.2.47-.33.7-.13.22-.28.43-.45.62-.17.19-.36.37-.56.53-.2.16-.42.3-.65.42-.23.12-.47.22-.71.29-.25.07-.5.13-.75.15-.26.03-.51.03-.77.01-.27,0-.54-.03-.81-.06-.27-.03-.54-.08-.8-.14-.27-.06-.53-.13-.79-.22-.26-.09-.51-.18-.76-.3-.25-.11-.49-.23-.73-.37-.24-.13-.47-.28-.69-.44-.22-.16-.44-.33-.64-.5-.21-.18-.4-.37-.59-.56-.19-.2-.36-.4-.53-.62-.17-.22-.32-.44-.47-.67-.15-.23-.28-.47-.4-.71-.12-.24-.23-.49-.33-.75-.1-.25-.18-.51-.26-.78-.07-.26-.13-.53-.18-.8-.05-.27-.08-.54-.1-.81-.02-.27-.03-.54-.02-.82,0-6.53,0-13.06,0-19.56v-1.87h-2.35c-.14,0-.27,0-.41-.02-.14-.01-.27-.03-.4-.06-.13-.02-.27-.06-.4-.09-.13-.04-.26-.08-.39-.13-.13-.05-.25-.11-.37-.17-.12-.06-.24-.13-.35-.2-.11-.07-.23-.15-.33-.24-.11-.08-.21-.17-.31-.27-.1-.09-.19-.19-.28-.3-.09-.1-.17-.21-.25-.32s-.15-.23-.22-.34c-.07-.12-.13-.24-.18-.36s-.1-.25-.15-.38c-.04-.13-.08-.26-.11-.39-.03-.13-.05-.27-.07-.4-.02-.13-.03-.27-.03-.41,0-.13,0-.27,0-.4,0-.13.03-.27.05-.4s.05-.26.09-.39c.04-.13.08-.26.13-.38.05-.12.1-.25.16-.37.06-.12.13-.24.2-.35.07-.11.15-.22.23-.33.08-.11.17-.21.26-.3.09-.1.19-.19.29-.28.1-.09.21-.17.32-.25.11-.08.22-.15.34-.21s.24-.13.36-.18c.12-.05.25-.1.37-.14.13-.04.26-.08.39-.11s.26-.05.39-.07c.13-.02.27-.03.4-.03q2.52-.2,2.52-2.72v-8.91c0-.23.04-.45.08-.68.05-.22.12-.44.2-.65.09-.21.19-.41.31-.61.12-.19.26-.37.42-.54.15-.17.32-.32.5-.46.18-.14.37-.26.58-.37.2-.1.41-.19.63-.26.22-.07.44-.12.67-.14.24-.05.48-.08.73-.08s.49.01.73.05c.24.04.48.1.71.18.23.08.45.19.66.31.21.12.41.26.6.42.19.16.36.33.51.52.15.19.29.39.41.61.12.22.21.44.29.67.18.58.27,1.17.27,1.77v9.32c0,1.19.37,1.5,1.53,1.5.24-.03.48-.04.72-.03.24,0,.48.04.71.09.23.05.46.12.69.21.22.09.44.19.64.32.21.12.4.26.58.42.18.16.35.33.5.51s.29.38.41.59c.12.21.22.42.31.65.05.15.09.31.12.47.03.16.05.32.06.48.01.16.02.32,0,.48s-.02.32-.05.48c-.02.16-.06.32-.1.47-.04.15-.09.31-.15.46-.06.15-.13.29-.2.44-.08.14-.16.28-.25.41-.09.13-.19.26-.3.38-.11.12-.22.23-.34.34s-.24.21-.37.3c-.13.09-.27.18-.41.26s-.28.15-.43.21c-.15.06-.3.11-.45.16-.15.04-.31.08-.47.11-.16.03-.32.04-.48.05-.68.14-1.36.1-2.18.1Z" /><path class="cls-1" d="m110.78,41.69c.75-.7,1.56-1.32,2.43-1.86.87-.54,1.78-1,2.74-1.37.96-.37,1.94-.64,2.95-.82,1.01-.18,2.02-.26,3.05-.24.25,0,.49.03.73.08.24.05.47.12.7.21.23.09.44.2.65.34s.4.28.58.45c.18.17.34.35.48.55.14.2.27.41.37.63.1.22.19.45.25.69.06.24.1.48.11.72.01.24,0,.49-.02.73-.03.24-.08.48-.16.71-.08.23-.17.46-.29.67-.12.22-.25.42-.41.61-.16.19-.33.36-.52.52-.19.16-.39.29-.6.41-.21.12-.44.22-.67.29-.23.08-.47.13-.71.16-.47.02-.93.07-1.39.15-.46.08-.91.19-1.35.33-.44.14-.88.31-1.3.51-.42.2-.83.42-1.22.67-.39.25-.77.53-1.12.83-.36.3-.69.62-1.01.97-.31.34-.6.71-.87,1.09-.27.38-.51.78-.72,1.19-.47.65-.89,1.34-1.26,2.07-.36.72-.66,1.47-.9,2.24-.24.77-.42,1.56-.53,2.36-.11.8-.16,1.61-.14,2.41.2,3.71,0,7.45,0,11.19,0,.15.01.3,0,.44,0,.15-.02.29-.04.44-.02.15-.05.29-.09.43-.04.14-.08.28-.14.42-.05.14-.11.27-.18.4-.07.13-.14.26-.23.38-.08.12-.17.24-.27.35-.09.11-.2.22-.3.32-.11.1-.22.2-.34.29-.12.09-.24.17-.36.25-.13.08-.26.15-.39.21-.13.06-.27.12-.41.17-.14.05-.28.09-.43.12-.14.03-.29.06-.44.07-.15.02-.29.03-.44.03-.15,0-.3,0-.44-.02-.24-.01-.47-.05-.71-.1-.23-.06-.46-.14-.67-.23-.22-.1-.42-.22-.62-.36-.19-.14-.38-.29-.54-.47-.17-.17-.31-.36-.44-.56-.13-.2-.24-.41-.33-.63-.09-.22-.16-.45-.21-.68-.05-.23-.07-.47-.08-.71v-30.62c0-.23.02-.46.07-.69.04-.23.11-.45.19-.66.08-.22.19-.42.31-.62s.26-.38.42-.55c.16-.17.33-.33.51-.47.18-.14.38-.26.59-.37.21-.1.42-.19.64-.25.22-.06.45-.11.68-.13.24-.04.48-.06.73-.06.25,0,.49.03.73.07.24.05.48.11.7.2.23.09.45.2.66.32.21.13.41.27.59.43.18.16.35.34.5.53.15.19.28.4.4.61.11.22.21.44.28.68.03.41.14.85.27,1.46Z" /><path class="cls-1" d="m27.03,29.44c.12.14.25.27.38.4.13.13.27.25.41.37.14.12.29.23.45.33s.31.2.47.29c.16.09.33.17.5.24.17.07.34.14.52.2.18.06.35.11.53.15.18.04.36.07.54.1s.37.04.55.05c.18,0,.37,0,.55,0,.18,0,.37-.03.55-.05.18-.03.36-.06.54-.1.18-.04.36-.09.53-.15s.35-.12.52-.2c.17-.07.34-.16.5-.24.16-.09.32-.19.47-.29.27-.18.52-.38.76-.6s.46-.46.66-.71c.2-.25.38-.52.53-.81.16-.28.29-.58.4-.88.11-.3.19-.62.25-.94s.09-.64.1-.96c0-.32-.01-.65-.06-.97-.05-.32-.12-.63-.22-.94,1.48-.94,3.05-1.73,4.69-2.35,1.64-.62,3.33-1.08,5.07-1.36,2.55-.51,5.17-.78,7.79-1.05.26-.05.52-.07.78-.07.26,0,.52.03.78.07.26.05.51.12.75.21.25.09.48.21.7.34.22.13.44.29.63.46.2.17.38.36.54.57s.31.42.43.65c.12.23.23.47.31.72.11.26.2.53.26.81.06.28.1.56.1.85s0,.57-.05.85c-.04.28-.11.56-.2.83-.09.27-.21.53-.35.78-.14.25-.3.48-.49.7s-.39.42-.61.6c-.22.18-.46.34-.7.48-1.84.73-3.74,1.27-5.68,1.63-2.48.65-5,1.19-7.45,1.94-.28.09-.55.18-.82.29-.27.11-.54.22-.8.35-.26.13-.52.27-.77.41-.25.15-.5.3-.74.47-.24.17-.47.34-.7.53-.23.18-.44.38-.65.58s-.41.41-.61.63-.38.44-.56.67c-.18.23-.34.47-.5.71s-.31.49-.45.75c-.14.26-.27.52-.39.78-.12.27-.23.54-.33.81s-.19.55-.26.83c-.08.28-.14.56-.2.85-.05.29-.1.57-.13.86-.03.29-.05.58-.06.87-.2,1.33-.31,2.67-.34,4.01,0,8.27,0,16.5,0,24.77.01.18.01.36,0,.54-.01.18-.03.36-.06.54-.03.18-.07.35-.12.53-.05.17-.11.34-.18.51-.07.17-.15.33-.24.48-.09.16-.19.31-.29.45-.11.15-.22.28-.34.42s-.25.26-.39.37c-.14.12-.28.23-.43.33-.15.1-.3.19-.46.28-.16.08-.32.16-.49.22-.17.06-.34.12-.52.16-.17.04-.35.08-.53.1-.18.02-.36.04-.54.04-.18,0-.36,0-.54-.02-.18-.02-.36-.05-.53-.08-.27-.05-.54-.12-.8-.22-.26-.1-.51-.22-.75-.36-.24-.14-.46-.31-.67-.49-.21-.18-.4-.39-.57-.61-.17-.22-.32-.45-.45-.7-.13-.25-.24-.5-.32-.77-.08-.27-.14-.54-.18-.81-.03-.28-.04-.55-.03-.83,0-9.07,0-18.14,0-27.21v-13.98Z" /><path class="cls-1" d="m31.76,21.96c.24,0,.47.02.7.07.23.05.46.11.68.21.22.09.43.2.62.33s.38.28.55.45c.17.17.32.35.45.55.13.2.24.4.33.62s.16.44.21.68c.05.23.07.47.07.7s-.02.47-.07.7-.11.46-.21.68c-.09.22-.2.43-.33.62-.13.2-.28.38-.45.55-.17.17-.35.32-.55.45s-.4.24-.62.33c-.22.09-.44.16-.68.21-.23.05-.47.07-.7.07s-.47-.02-.7-.07c-.23-.05-.46-.11-.68-.21-.22-.09-.43-.2-.62-.33-.2-.13-.38-.28-.55-.45-.17-.17-.32-.35-.45-.55s-.24-.4-.33-.62c-.09-.22-.16-.44-.21-.68-.05-.23-.07-.47-.07-.7,0-.24.02-.47.07-.7.05-.23.11-.46.21-.68.09-.22.2-.43.33-.62.13-.2.28-.38.45-.55.17-.17.35-.32.55-.45.2-.13.4-.24.62-.33.22-.09.44-.16.68-.21.23-.05.47-.07.7-.07Z" /></svg>